 http://www.imdb.com/title/tt0113277/

Source: Heat.1995.720p.BluRay.x264.MultiSubs-HDEVO Thanks!

Subs: Arabic, Brazilian, Bulgarian, Croatian, Czech, Danish, Dutch, English, Finnish, Italian, Macedonian, Romanian, Serbian, Slovenian, Spanish, Swedish, Turkish and Vietnamese.

Sample and Screens included.

General
Complete name                            : Heat-720p MP4 AAC x264 BRRip 1995-CC.mp4
Format                                   : MPEG-4
Format profile                           : Base Media
Codec ID                                 : isom
File size                                : 3.84 GiB
Duration                                 : 2h 50mn
Overall bit rate mode                    : Variable
Overall bit rate                         : 3 223 Kbps
Encoded date                             : UTC 2012-11-17 10:41:05

Video
ID                                       : 1
Format                                   : AVC
Format/Info                              : Advanced Video Codec
Format profile                           : High@L4.1
Format settings, CABAC                   : Yes
Format settings, ReFrames                : 5 frames
Codec ID                                 : avc1
Codec ID/Info                            : Advanced Video Coding
Duration                                 : 2h 50mn
Bit rate                                 : 2 852 Kbps
Maximum bit rate                         : 37.8 Mbps
Width                                    : 1 280 pixels
Height                                   : 528 pixels
Display aspect ratio                     : 2.40:1
Original display aspect ratio            : 2.40:1
Frame rate mode                          : Variable
Frame rate                               : 23.976 fps
Minimum frame rate                       : 19.048 fps
Maximum frame rate                       : 24.390 fps
Color space                              : YUV
Chroma subsampling                       : 4:2:0
Bit depth                                : 8 bits
Scan type                                : Progressive
Bits/(Pixel*Frame)                       : 0.176
Stream size                              : 3.37 GiB (88%)
Writing library                          : x264 core 112

Audio
ID                                       : 2
Format                                   : AAC
Format/Info                              : Advanced Audio Codec
Format profile                           : LC
Codec ID                                 : 40
Duration                                 : 2h 50mn
Bit rate mode                            : Variable
Bit rate                                 : 384 Kbps
Maximum bit rate                         : 683 Kbps
Channel(s)                               : 6 channels
Channel positions                        : Front: L C R, Side: L R, LFE
Sampling rate                            : 48.0 KHz
Compression mode                         : Lossy
Delay relative to video                  : 83ms
Stream size                              : 468 MiB (12%)
Language                                 : English


Enjoy...

Requested by cmptrluvr's.

Coming soon: Jay and Silent Bob Strike Back, Donnie Brasco, The Gold Rush, Solomon Kane ...